<svg xmlns="http://www.w3.org/2000/svg" viewBox="0 0 128 128">
  <defs><linearGradient id="g" x1="0" x2="1">
    <stop offset="0" stop-color="#4458dc"/><stop offset="1" stop-color="#854fee"/>
  </linearGradient></defs>
  <rect rx="18" ry="18" width="128" height="128" fill="white" stroke="url(#g)" stroke-width="2"/>
  <path d="M48 24a16 16 0 0 0-16 16v8a12 12 0 0 0 12 12h4v-12h-4a4 4 0 0 1-4-4v-4a8 8 0 0 1 8-8h4v-8h-4z" fill="url(#g)"/>
  <path d="M80 24h-4v8h4a8 8 0 0 1 8 8v4a4 4 0 0 1-4 4h-4v12h4a12 12 0 0 0 12-12v-8A16 16 0 0 0 80 24z" fill="url(#g)"/>
  <circle cx="64" cy="72" r="22" fill="none" stroke="url(#g)" stroke-width="6"/>
  <path d="M64 54v18l10 8" fill="none" stroke="url(#g)" stroke-width="6" stroke-linecap="round"/>
</svg>
